<?xml version="1.0" encoding="UTF-8" standalone="no"?>
<!-- Created with Inkscape (http://www.inkscape.org/) -->

<svg
   width="300mm"
   height="300mm"
   viewBox="0 0 300 300"
   version="1.1"
   id="svg1"
   inkscape:version="1.3.2 (091e20e, 2023-11-25)"
   sodipodi:docname="arda.svg"
   inkscape:export-filename="arda.png"
   inkscape:export-xdpi="96"
   inkscape:export-ydpi="96"
   xmlns:inkscape="http://www.inkscape.org/namespaces/inkscape"
   xmlns:sodipodi="http://sodipodi.sourceforge.net/DTD/sodipodi-0.dtd"
   xmlns:xlink="http://www.w3.org/1999/xlink"
   xmlns="http://www.w3.org/2000/svg"
   xmlns:svg="http://www.w3.org/2000/svg">
  <sodipodi:namedview
     id="namedview1"
     pagecolor="#ffffff"
     bordercolor="#000000"
     borderopacity="0.25"
     inkscape:showpageshadow="2"
     inkscape:pageopacity="0.0"
     inkscape:pagecheckerboard="0"
     inkscape:deskcolor="#d1d1d1"
     inkscape:document-units="mm"
     inkscape:zoom="0.57848098"
     inkscape:cx="356.10505"
     inkscape:cy="774.44206"
     inkscape:window-width="1776"
     inkscape:window-height="1203"
     inkscape:window-x="679"
     inkscape:window-y="196"
     inkscape:window-maximized="0"
     inkscape:current-layer="layer1" />
  <defs
     id="defs1">
    <linearGradient
       id="linearGradient4"
       inkscape:collect="always"
       inkscape:label="0">
      <stop
         style="stop-color:#8a90d9;stop-opacity:0.98928571;"
         offset="0.18348625"
         id="stop3" />
      <stop
         style="stop-color:#efef7a;stop-opacity:1;"
         offset="0.8593272"
         id="stop4" />
    </linearGradient>
    <linearGradient
       id="linearGradient2"
       inkscape:collect="always">
      <stop
         style="stop-color:#1d427c;stop-opacity:0.52142859;"
         offset="0"
         id="stop1" />
      <stop
         style="stop-color:#ebe945;stop-opacity:0.14642857;"
         offset="1"
         id="stop2" />
    </linearGradient>
    <linearGradient
       id="linearGradient6"
       inkscape:collect="always">
      <stop
         style="stop-color:#8ea5ca;stop-opacity:1;"
         offset="0"
         id="stop6" />
      <stop
         style="stop-color:#faf9b3;stop-opacity:1;"
         offset="1"
         id="stop7" />
    </linearGradient>
    <linearGradient
       id="linearGradient30"
       inkscape:collect="always"
       inkscape:label="0">
      <stop
         style="stop-color:#b1b5e9;stop-opacity:0.98928571;"
         offset="0.18348625"
         id="stop30" />
      <stop
         style="stop-color:#f7f7b9;stop-opacity:1;"
         offset="0.8593272"
         id="stop31" />
    </linearGradient>
    <linearGradient
       id="linearGradient20"
       inkscape:swatch="gradient">
      <stop
         style="stop-color:#cfcfd0;stop-opacity:1;"
         offset="0"
         id="stop21" />
      <stop
         style="stop-color:#cfcfd0;stop-opacity:0;"
         offset="1"
         id="stop22" />
    </linearGradient>
    <linearGradient
       inkscape:collect="always"
       xlink:href="#linearGradient30"
       id="linearGradient31"
       x1="1.2243195"
       y1="150.2704"
       x2="299.12273"
       y2="150.2704"
       gradientUnits="userSpaceOnUse" />
    <filter
       inkscape:collect="always"
       style="color-interpolation-filters:sRGB"
       id="filter54"
       x="-0.007605788"
       y="-0.0041968048"
       width="1.0152116"
       height="1.0083936">
      <feGaussianBlur
         inkscape:collect="always"
         stdDeviation="0.27967415"
         id="feGaussianBlur54" />
    </filter>
    <filter
       inkscape:collect="always"
       style="color-interpolation-filters:sRGB"
       id="filter55"
       x="-0.0050423125"
       y="-0.0030844789"
       width="1.0100846"
       height="1.006169">
      <feGaussianBlur
         inkscape:collect="always"
         stdDeviation="0.18541093"
         id="feGaussianBlur55" />
    </filter>
    <filter
       inkscape:collect="always"
       style="color-interpolation-filters:sRGB"
       id="filter54-5"
       x="-0.007605788"
       y="-0.004196805"
       width="1.0152116"
       height="1.0083936">
      <feGaussianBlur
         inkscape:collect="always"
         stdDeviation="0.27967415"
         id="feGaussianBlur54-0" />
    </filter>
    <filter
       inkscape:collect="always"
       style="color-interpolation-filters:sRGB"
       id="filter55-4"
       x="-0.022817786"
       y="-0.013462776"
       width="1.0456356"
       height="1.0269256">
      <feGaussianBlur
         inkscape:collect="always"
         stdDeviation="0.83903313"
         id="feGaussianBlur55-0" />
    </filter>
    <filter
       inkscape:collect="always"
       style="color-interpolation-filters:sRGB"
       id="filter55-7"
       x="-0.0050423125"
       y="-0.0027538574"
       width="1.0100846"
       height="1.0055077">
      <feGaussianBlur
         inkscape:collect="always"
         stdDeviation="0.18541093"
         id="feGaussianBlur55-4" />
    </filter>
    <filter
       inkscape:collect="always"
       style="color-interpolation-filters:sRGB"
       id="filter54-5-9"
       x="-0.0084274667"
       y="-0.0043108806"
       width="1.0168549"
       height="1.0086218">
      <feGaussianBlur
         inkscape:collect="always"
         stdDeviation="0.30988826"
         id="feGaussianBlur54-0-9" />
    </filter>
    <filter
       inkscape:collect="always"
       style="color-interpolation-filters:sRGB"
       id="filter2"
       x="-0.0084181226"
       y="-0.0088536575"
       width="1.0168362"
       height="1.0177073">
      <feGaussianBlur
         inkscape:collect="always"
         stdDeviation="0.099679216"
         id="feGaussianBlur2" />
    </filter>
    <filter
       inkscape:collect="always"
       style="color-interpolation-filters:sRGB"
       id="filter2-8"
       x="-0.0084181226"
       y="-0.0088536575"
       width="1.0168362"
       height="1.0177073">
      <feGaussianBlur
         inkscape:collect="always"
         stdDeviation="0.099679216"
         id="feGaussianBlur2-7" />
    </filter>
    <linearGradient
       inkscape:collect="always"
       xlink:href="#linearGradient6"
       id="linearGradient7"
       x1="48.129362"
       y1="278.63105"
       x2="252.51069"
       y2="278.63105"
       gradientUnits="userSpaceOnUse" />
    <linearGradient
       inkscape:collect="always"
       xlink:href="#linearGradient2"
       id="linearGradient8"
       gradientUnits="userSpaceOnUse"
       x1="48.129362"
       y1="278.63105"
       x2="252.51069"
       y2="278.63105"
       gradientTransform="translate(1.460494,-5.8301152)" />
    <linearGradient
       inkscape:collect="always"
       xlink:href="#linearGradient4"
       id="linearGradient3"
       gradientUnits="userSpaceOnUse"
       x1="1.2243195"
       y1="150.2704"
       x2="299.12273"
       y2="150.2704"
       gradientTransform="matrix(0.96800475,0,0,0.96800475,2.652682,2.2548642)" />
    <filter
       inkscape:collect="always"
       style="color-interpolation-filters:sRGB"
       id="filter4"
       x="-0.010766453"
       y="-0.027233527"
       width="1.0215329"
       height="1.0544671">
      <feGaussianBlur
         inkscape:collect="always"
         stdDeviation="1.2561688"
         id="feGaussianBlur4" />
    </filter>
    <filter
       inkscape:collect="always"
       style="color-interpolation-filters:sRGB"
       id="filter2-8-9"
       x="-0.0084181226"
       y="-0.0088536575"
       width="1.0168362"
       height="1.0177073">
      <feGaussianBlur
         inkscape:collect="always"
         stdDeviation="0.099679216"
         id="feGaussianBlur2-7-0" />
    </filter>
    <filter
       inkscape:collect="always"
       style="color-interpolation-filters:sRGB"
       id="filter5"
       x="-0.0065554779"
       y="-0.032538153"
       width="1.013111"
       height="1.0650763">
      <feGaussianBlur
         inkscape:collect="always"
         stdDeviation="0.55825722"
         id="feGaussianBlur5" />
    </filter>
  </defs>
  <g
     inkscape:label="Layer 1"
     inkscape:groupmode="layer"
     id="layer1">
    <path
       id="path52"
       style="opacity:1;fill:url(#linearGradient7);fill-opacity:0.99601603;stroke-width:0.286463"
       d="m 252.51069,258.04265 c -16.76826,3.92285 -48.32579,8.22824 -66.98118,10.11543 l 0.33997,26.45065 c 20.68576,-3.92399 51.85688,-20.77576 66.64121,-36.56608 z m -204.381328,0.29249 c 14.092307,15.68311 40.460647,31.57729 75.613238,38.30411 l 0.31261,-27.96768 c -21.7673,-1.73755 -56.492487,-5.86071 -75.925848,-10.33643 z m 137.685138,9.67744 c -11.95246,0.88568 -24.0639,1.33728 -36.20038,1.34979 -8.6922,-0.0352 -17.37099,-0.29564 -25.98704,-0.7798 v 28.10578 c 8.75542,1.63573 17.63992,2.48283 26.5467,2.53111 12.02259,-0.0913 24.1599,-1.63781 35.81071,-4.60592 z"
       sodipodi:nodetypes="ccccccccccccccc" />
    <path
       id="path40"
       style="opacity:1;fill:url(#linearGradient31);stroke-width:0.286463;fill-opacity:0.99601597;fill-rule:nonzero"
       d="M 295.0192 115.68234 A 211.64194 89.021713 0 0 0 149.61412 91.318974 A 211.64194 89.021713 0 0 0 5.7453857 115.2586 A 148.9492 148.9492 0 0 0 1.2242147 150.27041 A 148.9492 148.9492 0 0 0 48.129362 258.33514 A 211.64194 89.021713 0 0 0 149.61412 269.36237 A 211.64194 89.021713 0 0 0 252.51069 258.04265 A 148.9492 148.9492 0 0 0 299.12283 150.27041 A 148.9492 148.9492 0 0 0 295.0192 115.68234 z " />
    <path
       id="path52-4"
       style="opacity:0.835052;mix-blend-mode:normal;fill:url(#linearGradient8);fill-opacity:0.996016;stroke-width:0.286463;filter:url(#filter5)"
       d="m 253.97119,252.21252 c -16.76826,3.92285 -48.32579,8.22824 -66.98118,10.11543 l 0.33997,26.45065 c 20.68576,-3.92399 51.85688,-20.77576 66.64121,-36.56608 z m -204.381336,0.29249 c 14.092308,15.68311 40.460648,31.57729 75.613246,38.30411 l 0.31261,-27.96768 c -21.7673,-1.73755 -56.492498,-5.86071 -75.925856,-10.33643 z M 187.275,262.18245 c -11.95246,0.88568 -24.0639,1.33728 -36.20038,1.34979 -8.6922,-0.0352 -17.37099,-0.29564 -25.98704,-0.7798 v 28.10578 c 8.75542,1.63573 17.63992,2.48283 26.5467,2.53111 12.02259,-0.0913 24.1599,-1.63781 35.81071,-4.60592 z"
       sodipodi:nodetypes="ccccccccccccccc" />
    <path
       id="path39"
       style="opacity:1;fill:url(#linearGradient31);stroke-width:0.286463;fill-opacity:0.99601597;fill-rule:nonzero"
       d="M 150.17378 1.3213664 A 148.9492 148.9492 0 0 0 5.7453857 115.2586 A 211.64194 89.021713 0 0 1 149.61412 91.318974 A 211.64194 89.021713 0 0 1 295.0192 115.68234 A 148.9492 148.9492 0 0 0 150.17378 1.3213664 z " />
    <path
       id="path39-4"
       style="opacity:0.56701;mix-blend-mode:normal;fill:url(#linearGradient3);fill-opacity:0.996016;fill-rule:nonzero;stroke-width:0.277298;filter:url(#filter4)"
       d="M 148.02162,3.5339531 A 144.18353,144.18353 0 0 0 8.2142427,113.82575 204.8704,86.173441 0 0 1 147.47986,90.652065 204.8704,86.173441 0 0 1 288.23267,114.23593 144.18353,144.18353 0 0 0 148.02162,3.5339531 Z"
       transform="matrix(1.0063958,0,0,1.0063958,-0.49063056,-1.3754484)" />
    <path
       id="path50"
       style="opacity:0.438163;fill:#0955ba;fill-opacity:0.996016;stroke-width:0.264583;filter:url(#filter55)"
       d="m 110.54447,124.51864 c -24.36983,-1e-5 -44.125483,19.75564 -44.125468,44.12547 0.0066,22.01302 16.236417,40.654 38.039018,43.69036 v 26.97975 c 4.41473,0.34926 8.85478,0.63931 13.3134,0.86971 v -28.0696 c 21.26694,-3.53104 36.86904,-21.91215 36.89801,-43.47022 1e-5,-24.36963 -19.75533,-44.1252 -44.12496,-44.12547 z m 7.22695,115.66529 c -4.45862,-0.2304 -8.89867,-0.52045 -13.3134,-0.86971 l 0.2476,27.84742 c 4.38787,1.23951 9.32555,0.7913 13.80859,1.62326 z"
       sodipodi:nodetypes="ccccccccccccc" />
    <path
       id="path50-8"
       style="opacity:0.438163;fill:#0955ba;fill-opacity:0.996016;stroke-width:0.264583;filter:url(#filter55-7)"
       d="m 118.27979,107.84077 c -24.369831,-1e-5 -44.125483,19.75564 -44.125468,44.12547 0.0066,22.01302 16.236417,40.654 38.039018,43.69036 v 26.97975 c 4.41473,0.34926 8.85478,0.63931 13.3134,0.86971 v -28.0696 c 21.26694,-3.53104 36.86904,-21.91215 36.89801,-43.47022 1e-5,-24.36963 -19.75533,-44.1252 -44.12496,-44.12547 z m 7.22695,115.66529 c -4.45862,-0.2304 -8.89867,-0.52045 -13.3134,-0.86971 l 0.94041,45.86049 c 4.38787,1.23951 7.93993,0.0985 12.42297,0.93045 z"
       sodipodi:nodetypes="ccccccccccccc" />
    <path
       id="path50-6"
       style="opacity:0.303887;mix-blend-mode:normal;fill:#0955ba;fill-opacity:0.996016;stroke-width:0.264583;filter:url(#filter55-4)"
       d="m 99.236649,118.87561 c -24.36983,-10e-6 -44.125486,19.75564 -44.125471,44.12547 0.0066,22.01302 16.236417,40.654 38.039021,43.69036 v 26.97975 c 4.41473,0.34926 8.854781,0.63931 13.313401,0.86971 v -28.0696 c 21.26694,-3.53104 36.86904,-21.91215 36.89801,-43.47022 10e-6,-24.36963 -19.75533,-44.1252 -44.124961,-44.12547 z M 106.4636,234.5409 c -4.45862,-0.2304 -8.898671,-0.52045 -13.313401,-0.86971 l 0.2476,32.74676 c 4.38787,1.23951 9.325551,1.19957 13.808591,2.03153 z"
       sodipodi:nodetypes="ccccccccccccc" />
    <path
       id="path45"
       style="opacity:0.303887;fill:#b3a210;fill-opacity:0.996016;stroke-width:0.264583;filter:url(#filter54)"
       d="m 197.01655,108.49912 c -24.36984,-1e-5 -44.1255,19.75565 -44.12547,44.12549 0.0432,22.51166 17.02574,41.38157 39.40845,43.78802 v 45.421 c 4.4678,-0.3446 8.90807,-0.7496 13.31391,-1.21439 v -44.82259 c 20.61236,-4.09425 35.4772,-22.15705 35.52858,-43.17204 3e-5,-24.36984 -19.75563,-44.1255 -44.12547,-44.12549 z m 8.59689,132.12012 c -4.40584,0.46479 -8.84611,0.86979 -13.31391,1.21439 v 26.60096 c 4.49638,-1.09727 10.164,-3.38407 14.53874,-1.8731 z"
       sodipodi:nodetypes="sccccccsccccc" />
    <path
       id="path45-4"
       style="opacity:0.303887;fill:#e0cb14;fill-opacity:0.99601603;stroke-width:0.264583;filter:url(#filter54-5)"
       d="m 205.83209,107.50804 c -24.36984,-10e-6 -44.1255,19.75565 -44.12547,44.12548 0.0432,22.51166 17.02574,41.38157 39.40845,43.78802 v 45.421 c 4.4678,-0.3446 8.90807,-0.7496 13.31391,-1.21439 v -44.82259 c 20.61236,-4.09425 35.4772,-22.15705 35.52858,-43.17204 3e-5,-24.36983 -19.75563,-44.12549 -44.12547,-44.12548 z m 8.59689,132.12011 c -4.40584,0.46479 -8.84611,0.86979 -13.31391,1.21439 v 26.60096 c 4.49638,-1.09727 10.164,-3.38407 14.53874,-1.8731 z"
       sodipodi:nodetypes="sccccccsccccc" />
    <path
       id="path45-4-3"
       style="opacity:0.314488;mix-blend-mode:normal;fill:#f0df53;fill-opacity:0.99601603;stroke-width:0.264583;filter:url(#filter54-5-9)"
       d="m 190.6525,95.900915 c -24.36984,-1e-5 -44.1255,19.755655 -44.12547,44.125485 0.0432,22.51166 17.02574,41.38157 39.40845,43.78802 v 45.421 c 4.4678,-0.3446 8.90807,-0.7496 13.31391,-1.21439 v -44.82259 c 20.61236,-4.09425 35.4772,-22.15705 35.52858,-43.17204 3e-5,-24.36983 -19.75563,-44.125495 -44.12547,-44.125485 z m 8.59689,132.120115 c -4.40584,0.46479 -8.84611,0.86979 -13.31391,1.21439 v 39.18984 c 4.49638,-1.09727 10.164,-1.92025 14.53874,-0.40928 z"
       sodipodi:nodetypes="sccccccsccccc" />
    <ellipse
       style="opacity:1;mix-blend-mode:normal;fill:#f5a01b;fill-opacity:0.561753;stroke-width:0.388536;filter:url(#filter2)"
       id="path1-6-4"
       cx="83.753838"
       cy="63.971989"
       rx="14.209232"
       ry="13.510242" />
    <ellipse
       style="opacity:0.783505;mix-blend-mode:normal;fill:#f5a01b;fill-opacity:0.561753;stroke-width:0.388536;filter:url(#filter2-8)"
       id="path1-6-4-9"
       cx="87.638458"
       cy="67.734749"
       rx="14.209232"
       ry="13.510242" />
    <ellipse
       style="opacity:0.48453608;mix-blend-mode:normal;fill:#f5a01b;fill-opacity:0.561753;stroke-width:0.388536;filter:url(#filter2-8-9)"
       id="path1-6-4-9-2"
       cx="75.856689"
       cy="59.528755"
       rx="14.209232"
       ry="13.510242" />
  </g>
</svg>
